<svg xmlns="http://www.w3.org/2000/svg" viewBox="80 112 352 208" shape-rendering="crispEdges">
<defs><filter id="g" x="-40%" y="-40%" width="180%" height="180%"><feGaussianBlur stdDeviation="6" result="b"/><feMerge><feMergeNode in="b"/><feMergeNode in="SourceGraphic"/></feMerge></filter></defs>
<g filter="url(#g)">
<rect x="128" y="160" width="16" height="16" fill="#2f8f66"/>
<rect x="128" y="176" width="16" height="16" fill="#2f8f66"/>
<rect x="128" y="304" width="16" height="16" fill="#2f8f66"/>
<rect x="128" y="320" width="16" height="16" fill="#2f8f66"/>
<rect x="144" y="160" width="16" height="16" fill="#2f8f66"/>
<rect x="144" y="320" width="16" height="16" fill="#2f8f66"/>
<rect x="160" y="160" width="16" height="16" fill="#2f8f66"/>
<rect x="192" y="144" width="16" height="16" fill="#2f8f66"/>
<rect x="192" y="160" width="16" height="16" fill="#2f8f66"/>
<rect x="192" y="320" width="16" height="16" fill="#2f8f66"/>
<rect x="192" y="336" width="16" height="16" fill="#2f8f66"/>
<rect x="208" y="160" width="16" height="16" fill="#2f8f66"/>
<rect x="208" y="320" width="16" height="16" fill="#2f8f66"/>
<rect x="224" y="320" width="16" height="16" fill="#2f8f66"/>
<rect x="256" y="160" width="16" height="16" fill="#2f8f66"/>
<rect x="256" y="176" width="16" height="16" fill="#2f8f66"/>
<rect x="256" y="304" width="16" height="16" fill="#2f8f66"/>
<rect x="256" y="320" width="16" height="16" fill="#2f8f66"/>
<rect x="272" y="160" width="16" height="16" fill="#2f8f66"/>
<rect x="272" y="320" width="16" height="16" fill="#2f8f66"/>
<rect x="288" y="160" width="16" height="16" fill="#2f8f66"/>
<rect x="320" y="144" width="16" height="16" fill="#2f8f66"/>
<rect x="320" y="160" width="16" height="16" fill="#2f8f66"/>
<rect x="320" y="320" width="16" height="16" fill="#2f8f66"/>
<rect x="320" y="336" width="16" height="16" fill="#2f8f66"/>
<rect x="336" y="160" width="16" height="16" fill="#2f8f66"/>
<rect x="336" y="320" width="16" height="16" fill="#2f8f66"/>
<rect x="352" y="320" width="16" height="16" fill="#2f8f66"/>
<rect x="368" y="192" width="16" height="16" fill="#2f8f66"/>
<rect x="384" y="192" width="16" height="16" fill="#2f8f66"/>
<rect x="384" y="208" width="16" height="16" fill="#2f8f66"/>
<rect x="384" y="256" width="16" height="16" fill="#2f8f66"/>
<rect x="384" y="272" width="16" height="16" fill="#2f8f66"/>
<rect x="384" y="288" width="16" height="16" fill="#2f8f66"/>
<rect x="400" y="256" width="16" height="16" fill="#2f8f66"/>
<rect x="160" y="128" width="16" height="16" fill="#66ffab"/>
<rect x="160" y="144" width="16" height="16" fill="#66ffab"/>
<rect x="160" y="320" width="16" height="16" fill="#66ffab"/>
<rect x="160" y="336" width="16" height="16" fill="#66ffab"/>
<rect x="176" y="128" width="16" height="16" fill="#66ffab"/>
<rect x="176" y="144" width="16" height="16" fill="#66ffab"/>
<rect x="176" y="320" width="16" height="16" fill="#66ffab"/>
<rect x="176" y="336" width="16" height="16" fill="#66ffab"/>
<rect x="224" y="160" width="16" height="16" fill="#66ffab"/>
<rect x="224" y="176" width="16" height="16" fill="#66ffab"/>
<rect x="224" y="288" width="16" height="16" fill="#66ffab"/>
<rect x="224" y="304" width="16" height="16" fill="#66ffab"/>
<rect x="240" y="160" width="16" height="16" fill="#66ffab"/>
<rect x="240" y="176" width="16" height="16" fill="#66ffab"/>
<rect x="240" y="288" width="16" height="16" fill="#66ffab"/>
<rect x="240" y="304" width="16" height="16" fill="#66ffab"/>
<rect x="288" y="128" width="16" height="16" fill="#66ffab"/>
<rect x="288" y="144" width="16" height="16" fill="#66ffab"/>
<rect x="288" y="320" width="16" height="16" fill="#66ffab"/>
<rect x="288" y="336" width="16" height="16" fill="#66ffab"/>
<rect x="304" y="128" width="16" height="16" fill="#66ffab"/>
<rect x="304" y="144" width="16" height="16" fill="#66ffab"/>
<rect x="304" y="320" width="16" height="16" fill="#66ffab"/>
<rect x="304" y="336" width="16" height="16" fill="#66ffab"/>
<rect x="352" y="160" width="16" height="16" fill="#66ffab"/>
<rect x="352" y="176" width="16" height="16" fill="#66ffab"/>
<rect x="352" y="288" width="16" height="16" fill="#66ffab"/>
<rect x="352" y="304" width="16" height="16" fill="#66ffab"/>
<rect x="368" y="160" width="16" height="16" fill="#66ffab"/>
<rect x="368" y="176" width="16" height="16" fill="#66ffab"/>
<rect x="368" y="288" width="16" height="16" fill="#66ffab"/>
<rect x="368" y="304" width="16" height="16" fill="#66ffab"/>
<rect x="384" y="224" width="16" height="16" fill="#66ffab"/>
<rect x="384" y="240" width="16" height="16" fill="#66ffab"/>
<rect x="400" y="224" width="16" height="16" fill="#66ffab"/>
<rect x="400" y="240" width="16" height="16" fill="#66ffab"/>
<rect x="96" y="160" width="16" height="16" fill="#ff5cae"/>
<rect x="96" y="176" width="16" height="16" fill="#ff5cae"/>
<rect x="112" y="160" width="16" height="16" fill="#ff5cae"/>
<rect x="112" y="176" width="16" height="16" fill="#ff5cae"/>
<rect x="96" y="288" width="16" height="16" fill="#ffcf3f"/>
<rect x="96" y="304" width="16" height="16" fill="#ffcf3f"/>
<rect x="112" y="288" width="16" height="16" fill="#ffcf3f"/>
<rect x="112" y="304" width="16" height="16" fill="#ffcf3f"/>
</g>
</svg>